<?xml version="1.0" encoding="utf-8"?>
<!-- Generator: Adobe Illustrator 25.2.3, SVG Export Plug-In . SVG Version: 6.00 Build 0)  -->
<svg version="1.1" id="Layer_1" xmlns="http://www.w3.org/2000/svg" xmlns:xlink="http://www.w3.org/1999/xlink" x="0px" y="0px"
	 viewBox="0 0 1200 361.5" style="enable-background:new 0 0 1200 361.5;" xml:space="preserve">
<style type="text/css">
	.st0{fill:none;stroke:#1D1D1B;stroke-miterlimit:10;}
	.st1{fill:#FA782D;}
	.st2{fill:#8BDD4A;}
	.st3{fill:#E30613;}
	.st4{fill:none;stroke:#FFFFFF;stroke-width:7;stroke-linecap:round;stroke-linejoin:round;stroke-miterlimit:10;}
	.st5{fill:#FFFFFF;}
	.st6{enable-background:new    ;}
	.st7{fill:#1D1D1B;}
	.st8{fill:#FFC200;}
	.st9{fill:#28C0F2;}
	.st10{fill:#1D1D1B;stroke:#1D1D1B;stroke-miterlimit:10;}
</style>
<g id="Capa_1">
</g>
<g id="_x31_">
	<path class="st0" d="M2569.6-1442.9c-72.1,0-130.6,58.5-130.6,130.6s58.5,130.6,130.6,130.6s130.6-58.5,130.6-130.6
		S2641.8-1442.9,2569.6-1442.9z M2569.6-1193.1c-65.8,0-119.2-53.4-119.2-119.2s53.4-119.2,119.2-119.2
		c65.8,0,119.2,53.4,119.2,119.2S2635.5-1193.1,2569.6-1193.1z"/>
	<path class="st0" d="M2573.4-1402.3v-23.2c-1.5-0.1-2.9-0.1-4.4-0.1c-1.6,0-3.1,0-4.7,0.1v21.8l-36.5,60.2l-34-21.1v0l-8.5-5.3v0
		l-9.9-6.2c-1.6,2.3-3.1,4.7-4.5,7.2l14.2,8.8v123.7c2.8,3.1,5.9,6.1,9,8.9v-127l36.5,22.6l0.1-0.1l0.1,0l4.3-7.2l0,0l0,0l29.3-48.3
		v11.7v176.5c1.6,0.1,3.1,0.1,4.7,0.1c1.5,0,2.9,0,4.4-0.1v-24.4h66c3.4-2.7,6.5-5.5,9.6-8.5h-75.5v-76.2h48.4l-18.2,37.2h0
		l-4.4,8.5h71.6c1.4-2.8,2.6-5.6,3.8-8.5H2613l32.2-65.6l-0.1,0l18.6-38c-1.8-2.7-3.6-5.3-5.6-7.8l-32.1,65.7h-52.5v-76.2h75.3
		c-3-3-6.2-5.8-9.6-8.5h-65.7L2573.4-1402.3L2573.4-1402.3z"/>
	<g>
		<g>
			<path class="st1" d="M1815.7,310c-2,0-3.6,1.6-3.6,3.6s1.6,3.6,3.6,3.6s3.6-1.6,3.6-3.6S1817.7,310,1815.7,310z"/>
			<path class="st1" d="M1846,383.1c2,0,3.6-1.6,3.6-3.6s-1.6-3.6-3.6-3.6s-3.6,1.6-3.6,3.6S1844,383.1,1846,383.1z"/>
			<path class="st1" d="M1956.5,272.7L1832.3,201c-0.7-0.4-1.7-0.4-2.4,0l-124.2,71.7c-0.7,0.4-1.2,1.2-1.2,2.1v143.4
				c0,0.9,0.5,1.7,1.2,2.1l124.2,71.7c0.7,0.4,1.7,0.4,2.4,0l124.2-71.7c0.7-0.4,1.2-1.2,1.2-2.1V274.8
				C1957.7,273.9,1957.2,273.1,1956.5,272.7z M1804.7,332.5l-23.2,59.5c-0.6,1.5-2.1,2.5-3.8,2.5c-1.7,0-3.2-1.1-3.7-2.6l-10.9-30.4
				v64c0,1.4-0.8,2.8-2,3.5c-0.6,0.4-1.3,0.5-2,0.5s-1.4-0.2-2-0.5l-32.4-18.7c-1.2-0.7-2-2-2-3.5V286.2c0-1.4,0.8-2.8,2-3.5
				l32.4-18.7c1-0.6,2.3-0.7,3.4-0.3s2,1.3,2.4,2.4l13.9,39l11.9-57.9c0.2-1.1,0.9-2.1,1.9-2.7l38.4-22.2c1.2-0.7,2.8-0.7,4,0
				l15,8.6c1.2,0.7,2,2,2,3.5v135.1c3.9,1.6,6.6,5.4,6.6,9.8c0,5.8-4.8,10.6-10.6,10.6s-10.6-4.8-10.6-10.6c0-4.4,2.7-8.2,6.6-9.8
				V236.9l-11-6.3l-34.9,20.1l-14.4,70.1c-0.4,1.8-1.8,3.1-3.6,3.2c-1.8,0.1-3.4-1-4.1-2.6l-17.1-48l-26.3,15.2v115.9l24.4,14.1
				v-80.1c0-2,1.4-3.6,3.3-3.9c1.9-0.3,3.8,0.8,4.4,2.6l15,42.1l19.3-49.6c0.8-2.1,3.1-3.1,5.2-2.3
				C1804.5,328.1,1805.5,330.4,1804.7,332.5z M1939.4,323.3c0,1.4-0.7,2.7-1.9,3.4c-1.2,0.7-2.7,0.8-3.9,0.1l-60.1-31v28L1924,341
				c1.6,0.5,2.7,2.1,2.7,3.8v1.2c0,1.7-1.1,3.2-2.7,3.8l-50.6,17.2v28l60.1-31c1.2-0.6,2.7-0.6,3.9,0.1c1.2,0.7,1.9,2,1.9,3.4v39.2
				c0,1.4-0.8,2.8-2,3.5l-104.4,60.3c-0.6,0.4-1.3,0.5-2,0.5s-1.4-0.2-2-0.5l-15.5-8.9c-1.2-0.7-2-2-2-3.5V323.4
				c-3.8-1.6-6.5-5.4-6.5-9.8c0-5.8,4.8-10.6,10.6-10.6s10.6,4.8,10.6,10.6c0,4.5-2.8,8.3-6.7,9.8v132.3l11.5,6.6l100.4-58v-30.3
				l-60.1,31c-1.2,0.6-2.7,0.6-3.9-0.1c-1.2-0.7-1.9-2-1.9-3.4v-37.4c0-1.7,1.1-3.2,2.7-3.8l43.9-14.9l-43.9-14.9
				c-1.6-0.5-2.7-2.1-2.7-3.8v-37.4c0-1.4,0.7-2.7,1.9-3.4c1.2-0.7,2.7-0.8,3.9-0.1l60.1,31v-28.1l-66.8-38.5
				c-1.9-1.1-2.6-3.6-1.5-5.5c1.1-1.9,3.6-2.6,5.5-1.5l68.8,39.7c1.2,0.7,2,2,2,3.5V323.3z"/>
		</g>
	</g>
	<g>
		<g>
			<path class="st2" d="M2140.5,310c-2,0-3.6,1.6-3.6,3.6s1.6,3.6,3.6,3.6s3.6-1.6,3.6-3.6S2142.5,310,2140.5,310z"/>
			<path class="st2" d="M2170.9,383.1c2,0,3.6-1.6,3.6-3.6s-1.6-3.6-3.6-3.6s-3.6,1.6-3.6,3.6S2168.9,383.1,2170.9,383.1z"/>
			<path class="st2" d="M2281.3,272.7L2157.1,201c-0.7-0.4-1.7-0.4-2.4,0l-124.2,71.7c-0.7,0.4-1.2,1.2-1.2,2.1v143.4
				c0,0.9,0.5,1.7,1.2,2.1l124.2,71.7c0.8,0.4,1.7,0.4,2.4,0l124.2-71.7c0.8-0.4,1.2-1.2,1.2-2.1V274.8
				C2282.5,273.9,2282.1,273.1,2281.3,272.7z M2129.6,332.5l-23.2,59.5c-0.6,1.5-2.1,2.5-3.8,2.5c-1.7,0-3.1-1.1-3.7-2.6l-10.9-30.4
				v64c0,1.4-0.8,2.8-2,3.5c-0.6,0.4-1.3,0.5-2,0.5s-1.4-0.2-2-0.5l-32.4-18.7c-1.2-0.7-2-2-2-3.5V286.2c0-1.4,0.8-2.8,2-3.5
				l32.4-18.7c1-0.6,2.3-0.7,3.4-0.3s2,1.3,2.4,2.4l13.9,39l11.9-57.9c0.2-1.1,0.9-2.1,1.9-2.7l38.4-22.2c1.2-0.7,2.8-0.7,4,0
				l15,8.6c1.2,0.7,2,2,2,3.5v135.1c3.9,1.6,6.6,5.4,6.6,9.8c0,5.8-4.8,10.6-10.6,10.6s-10.6-4.8-10.6-10.6c0-4.4,2.7-8.2,6.6-9.8
				V236.9l-11-6.3l-34.9,20.1l-14.4,70.1c-0.4,1.8-1.9,3.1-3.6,3.2c-1.8,0.1-3.4-1-4.1-2.6l-17.1-48l-26.3,15.2v115.9l24.4,14.1
				v-80.1c0-2,1.4-3.6,3.3-3.9c1.9-0.3,3.8,0.8,4.4,2.6l15,42.1l19.3-49.6c0.8-2.1,3.1-3.1,5.2-2.3
				C2129.3,328.1,2130.4,330.4,2129.6,332.5z M2264.3,323.3c0,1.4-0.7,2.7-1.9,3.4s-2.7,0.8-3.9,0.1l-60.1-31v28l50.6,17.2
				c1.6,0.5,2.7,2.1,2.7,3.8v1.2c0,1.7-1.1,3.2-2.7,3.8l-50.6,17.2v28l60.1-31c1.2-0.6,2.7-0.6,3.9,0.1c1.2,0.7,1.9,2,1.9,3.4v39.2
				c0,1.4-0.8,2.8-2,3.5l-104.4,60.3c-0.6,0.4-1.3,0.5-2,0.5s-1.4-0.2-2-0.5l-15.5-8.9c-1.2-0.7-2-2-2-3.5V323.4
				c-3.8-1.6-6.5-5.4-6.5-9.8c0-5.8,4.8-10.6,10.6-10.6s10.6,4.8,10.6,10.6c0,4.5-2.8,8.3-6.7,9.8v132.3l11.5,6.6l100.4-58v-30.3
				l-60.1,31c-1.2,0.6-2.7,0.6-3.9-0.1s-1.9-2-1.9-3.4v-37.4c0-1.7,1.1-3.2,2.7-3.8l43.9-14.9l-43.9-14.9c-1.6-0.5-2.7-2.1-2.7-3.8
				v-37.4c0-1.4,0.7-2.7,1.9-3.4s2.7-0.8,3.9-0.1l60.1,31v-28.1l-66.8-38.5c-1.9-1.1-2.6-3.6-1.5-5.5c1.1-1.9,3.6-2.6,5.5-1.5
				l68.8,39.7c1.2,0.7,2,2,2,3.5V323.3z"/>
		</g>
	</g>
	<path class="st3" d="M1526.7,278.7V135.2c0-0.9-0.5-1.7-1.2-2.1l-124.2-71.7c-0.7-0.4-1.7-0.4-2.4,0l-124.2,71.7
		c-0.7,0.4-1.2,1.2-1.2,2.1v143.4c0,0.9,0.5,1.7,1.2,2.1l124.2,71.7c0.7,0.4,1.7,0.4,2.4,0l124.2-71.7
		C1526.2,280.4,1526.7,279.6,1526.7,278.7z"/>
	<polyline class="st4" points="1370,191.5 1346.8,251 1328.1,198.9 1328.1,286 1295.7,267.2 1295.7,146.7 1328.1,128 1346.9,180.5 
		1361.6,108.7 1400.1,86.5 1415,95.1 1415,231.6 	"/>
	<polyline class="st4" points="1435.7,107 1504.4,146.7 1504.4,183.7 1438.5,149.8 1438.5,187.2 1491.8,205.3 1491.8,206.5 
		1438.5,224.6 1438.5,262 1504.4,228 1504.4,267.2 1400.1,327.5 1384.6,318.5 1384.6,182.6 	"/>
	<g>
		<path class="st5" d="M1415,236.4c2,0,3.6,1.6,3.6,3.6s-1.6,3.6-3.6,3.6s-3.6-1.6-3.6-3.6S1413,236.4,1415,236.4 M1415,232.4
			c-4.2,0-7.6,3.4-7.6,7.6s3.4,7.6,7.6,7.6s7.6-3.4,7.6-7.6S1419.2,232.4,1415,232.4L1415,232.4z"/>
	</g>
	<g>
		<path class="st5" d="M1384.7,170.5c2,0,3.6,1.6,3.6,3.6s-1.6,3.6-3.6,3.6s-3.6-1.6-3.6-3.6S1382.7,170.5,1384.7,170.5
			 M1384.7,166.5c-4.2,0-7.6,3.4-7.6,7.6s3.4,7.6,7.6,7.6s7.6-3.4,7.6-7.6S1388.9,166.5,1384.7,166.5L1384.7,166.5z"/>
	</g>
	<g>
		<path class="st3" d="M182.4,152.3c-2,0-3.6,1.6-3.6,3.6s1.6,3.6,3.6,3.6s3.6-1.6,3.6-3.6S184.4,152.3,182.4,152.3z"/>
		<path class="st3" d="M213.2,226.4c2,0,3.6-1.6,3.6-3.6s-1.6-3.6-3.6-3.6s-3.6,1.6-3.6,3.6S211.2,226.4,213.2,226.4z"/>
		<path class="st3" d="M325.3,114.4l-126-72.8c-0.8-0.4-1.7-0.4-2.4,0l-126,72.8c-0.8,0.4-1.2,1.2-1.2,2.1v145.5
			c0,0.9,0.5,1.7,1.2,2.1l126,72.8c0.8,0.4,1.7,0.4,2.4,0l126-72.8c0.8-0.4,1.2-1.2,1.2-2.1V116.5
			C326.5,115.7,326,114.8,325.3,114.4z M171.3,175l-23.6,60.4c-0.6,1.6-2.2,2.6-3.8,2.6c-1.7,0-3.2-1.1-3.8-2.7l-11-30.9v64.9
			c0,1.5-0.8,2.8-2,3.5c-0.6,0.4-1.3,0.5-2,0.5s-1.4-0.2-2-0.5l-32.9-19c-1.3-0.7-2-2.1-2-3.5V128.1c0-1.4,0.8-2.8,2-3.5l32.9-19
			c1-0.6,2.3-0.7,3.4-0.3c1.1,0.4,2,1.3,2.4,2.4l14.1,39.6l12.1-58.7c0.2-1.1,0.9-2.1,1.9-2.7l39-22.5c1.3-0.7,2.8-0.7,4.1,0
			l15.2,8.8c1.3,0.7,2,2.1,2,3.5v137c3.9,1.6,6.7,5.4,6.7,9.9c0,5.9-4.8,10.7-10.7,10.7s-10.7-4.8-10.7-10.7c0-4.5,2.8-8.3,6.7-9.9
			V78.1L198,71.7l-35.4,20.4L148,163.3c-0.4,1.8-1.9,3.1-3.7,3.2c-1.8,0.1-3.5-1-4.1-2.7l-17.4-48.7l-26.6,15.4v117.6l24.8,14.3
			v-81.3c0-2,1.4-3.7,3.4-4c1.9-0.3,3.8,0.8,4.5,2.6l15.3,42.7l19.6-50.3c0.8-2.1,3.2-3.1,5.3-2.3
			C171.1,170.6,172.1,172.9,171.3,175z M308,165.7c0,1.4-0.7,2.7-2,3.5c-1.2,0.7-2.7,0.8-4,0.1l-61-31.4v28.4l51.3,17.4
			c1.6,0.6,2.8,2.1,2.8,3.8v1.2c0,1.7-1.1,3.3-2.8,3.8L241,210.1v28.4l61-31.4c1.3-0.6,2.8-0.6,4,0.1c1.2,0.7,2,2.1,2,3.5v39.8
			c0,1.4-0.8,2.8-2,3.5L200.1,315c-0.6,0.4-1.3,0.5-2,0.5s-1.4-0.2-2-0.5l-15.7-9.1c-1.3-0.7-2-2.1-2-3.5V165.9
			c-3.9-1.6-6.6-5.5-6.6-9.9c0-5.9,4.8-10.7,10.7-10.7s10.7,4.8,10.7,10.7c0,4.5-2.8,8.4-6.8,10v134.2l11.6,6.7l101.8-58.8v-30.8
			l-61,31.4c-1.3,0.6-2.8,0.6-4-0.1c-1.2-0.7-1.9-2.1-1.9-3.5v-38c0-1.7,1.1-3.3,2.8-3.8l44.5-15.1l-44.6-15.1
			c-1.6-0.6-2.8-2.1-2.8-3.8v-38c0-1.4,0.7-2.7,1.9-3.5c1.2-0.7,2.7-0.8,4-0.1l61,31.4v-28.6l-67.7-39.1c-1.9-1.1-2.6-3.6-1.5-5.5
			s3.6-2.6,5.5-1.5l69.8,40.3c1.3,0.7,2,2.1,2,3.5L308,165.7L308,165.7z"/>
	</g>
	<g class="st6">
		<path class="st7" d="M442,109.5v77h-12.8v-34.2l-22.5,34.1l-22.5-34.1v34.2h-12.8v-77l35.3,53.6L442,109.5z"/>
	</g>
	<g class="st6">
		<path class="st3" d="M562.9,186.6H549l-5.3-12.8h-26.3l-5.4,12.8H498l32.5-77.6L562.9,186.6z M538.3,161l-7.8-18.7l-7.8,18.7
			H538.3z"/>
		<path class="st3" d="M679,109.5v77.3l-48.2-47.1v46.8H618v-77.3l48.2,47.1v-46.8H679z"/>
		<path class="st3" d="M801.2,141.7v32.4l-2,1.9c-15.2,14.5-39.2,14.1-54-0.9c-14.8-15-14.8-39-0.1-54c14.7-15,38.7-15.5,54-1.1
			l-8.8,9.3c-9.9-9.4-25.5-9.3-35.4,0.1s-10.6,25-1.7,35.3s24.4,11.9,35.2,3.6v-13.9h-15.7v-12.8H801.2z"/>
	</g>
	<g class="st6">
		<path class="st7" d="M871.9,122.4v19.3h29.8v12.8h-29.8v19.2H907v12.8h-48v-77h48v12.8H871.9z"/>
	</g>
	<g class="st6">
		<path class="st3" d="M1024.7,186.6h-17.8L975.8,154v32.6H963v-77h12.8v32.6l30.8-32.6h17.7L987.9,148L1024.7,186.6z"/>
		<path class="st3" d="M1079.8,186.6v-77h12.8v77H1079.8z"/>
	</g>
	<g class="st6">
		<path class="st7" d="M615.6,229.6c-0.2,0.3-0.5,0.5-0.9,0.6c-5.3,8.1-14.3,16.6-23.1,22.9c4.4,3.5,8.8,7.9,11.7,11.1l-3.5,3
			c-6-7-17.2-16.4-26.9-22.1l2.7-2.9c4.1,2.3,8.6,5.3,12.7,8.4c7.7-5.5,15.5-12.8,20-19.5h-41.9v-3.9h44.9l0.7-0.3L615.6,229.6z"/>
		<path class="st7" d="M659.7,224.9c5.9,1.9,12.8,4.9,17,7.8l-2.2,3.6c-4.1-2.9-10.8-5.9-16.7-7.9L659.7,224.9z M659.5,264.5
			c20.3-6.3,33.7-17.6,40.6-33.5c1.2,1,2.5,1.7,3.7,2.3c-7.1,15.6-21.1,27.8-40.4,34.2c-0.1,0.5-0.4,1.1-0.8,1.3L659.5,264.5z"/>
		<path class="st7" d="M791.7,233.9v3.9h-14.2c-0.2,0.3-0.5,0.6-1,0.7c-1.7,13.2-7.1,24.8-19.1,31.7c-0.9-0.9-2.5-1.9-3.5-2.6
			c11.7-6.3,17.1-17.1,18.6-29.9h-15.9c-2.6,4.7-5.9,8.9-9,11.8c-0.9-0.6-2.5-1.5-3.6-2c6.2-5.3,12.8-16.4,15.5-27.1l5.5,1.3
			c-0.1,0.4-0.6,0.9-1.5,0.9c-1.2,3.5-3.1,7.9-4.9,11.3H791.7z M779.7,220.8c2.6,2.2,5.7,5.8,7.3,8.3l-2.2,1.7
			c-1.7-2.6-4.6-6.1-7.1-8.3L779.7,220.8z M787.7,217.7c2.6,2.2,5.7,5.8,7.3,8.3l-2.2,1.7c-1.7-2.7-4.6-6.1-7.1-8.3L787.7,217.7z"/>
		<path class="st7" d="M860.7,251.7l2.1,17.9l-4.1,0.5l-2-17.9l-21.4,2.7l-0.5-3.8l21.5-2.7l-1.5-12.8l-17.9,2.3l-0.5-3.8l18-2.3
			l-1.3-11.3l5.6-0.2c0,0.6-0.5,1-1.3,1.3l1,9.7l17.4-2.3l0.5,3.9l-17.4,2.2l1.5,12.8l21.5-2.7l0.5,3.8L860.7,251.7z"/>
	</g>
	<g>
		<g>
			<g>
				<path class="st8" d="M341.6,1131.3c-2,0-3.6,1.6-3.6,3.6s1.6,3.6,3.6,3.6s3.6-1.6,3.6-3.6S343.6,1131.3,341.6,1131.3z"/>
				<path class="st8" d="M371.9,1204.3c2,0,3.6-1.6,3.6-3.6s-1.6-3.6-3.6-3.6s-3.6,1.6-3.6,3.6S369.9,1204.3,371.9,1204.3z"/>
				<path class="st8" d="M482.4,1093.9l-124.2-71.7c-0.7-0.4-1.7-0.4-2.4,0l-124.2,71.7c-0.7,0.4-1.2,1.2-1.2,2.1v143.4
					c0,0.9,0.5,1.7,1.2,2.1l124.2,71.7c0.7,0.4,1.7,0.4,2.4,0l124.2-71.7c0.7-0.4,1.2-1.2,1.2-2.1V1096
					C483.6,1095.1,483.1,1094.3,482.4,1093.9z M330.6,1153.7l-23.2,59.6c-0.6,1.6-2.1,2.6-3.8,2.6c-1.7,0-3.1-1.1-3.7-2.7
					l-10.9-30.4v64c0,1.4-0.8,2.8-2,3.5c-0.6,0.4-1.3,0.5-2,0.5s-1.4-0.2-2-0.5l-32.4-18.7c-1.2-0.7-2-2-2-3.5v-120.5
					c0-1.4,0.8-2.8,2-3.5l32.4-18.7c1-0.6,2.3-0.7,3.4-0.3s2,1.3,2.4,2.4l14,39.1l11.9-57.9c0.2-1.1,0.9-2.1,1.9-2.7l38.4-22.2
					c1.2-0.7,2.8-0.7,4,0l15,8.6c1.2,0.7,2,2,2,3.5v135.1c3.9,1.6,6.6,5.4,6.6,9.8c0,5.8-4.8,10.6-10.6,10.6s-10.6-4.8-10.6-10.6
					c0-4.4,2.7-8.2,6.6-9.8v-132.8l-11-6.3l-34.9,20.1l-14.4,70.1c-0.4,1.8-1.9,3.1-3.6,3.2c-1.8,0.1-3.4-1-4-2.6l-17.1-48
					l-26.3,15.2v115.9l24.4,14.1v-80.2c0-1.9,1.4-3.6,3.3-3.9s3.8,0.8,4.5,2.6l15,42.1l19.3-49.6c0.8-2.1,3.1-3.1,5.2-2.3
					C330.4,1149.3,331.4,1151.6,330.6,1153.7z M465.3,1144.5c0,1.4-0.7,2.7-1.9,3.4c-1.2,0.7-2.7,0.8-3.9,0.1l-60.1-31v28l50.6,17.2
					c1.6,0.6,2.7,2.1,2.7,3.8v1.2c0,1.7-1.1,3.2-2.7,3.8l-50.6,17.2v28l60.1-31c1.2-0.6,2.7-0.6,3.9,0.1c1.2,0.7,1.9,2,1.9,3.4v39.2
					c0,1.4-0.8,2.8-2,3.5l-104.4,60.3c-0.6,0.4-1.3,0.5-2,0.5s-1.4-0.2-2-0.5l-15.5-8.9c-1.2-0.7-2-2-2-3.5v-134.7
					c-3.8-1.6-6.5-5.4-6.5-9.8c0-5.8,4.8-10.6,10.6-10.6s10.6,4.8,10.6,10.6c0,4.5-2.8,8.3-6.7,9.8V1277l11.5,6.6l100.4-57.9v-30.3
					l-60.1,31c-1.2,0.6-2.7,0.6-3.9-0.1s-1.9-2-1.9-3.4v-37.4c0-1.7,1.1-3.2,2.7-3.8l43.9-14.9l-43.9-14.9c-1.6-0.6-2.7-2.1-2.7-3.8
					v-37.4c0-1.4,0.7-2.7,1.9-3.4c1.2-0.7,2.7-0.8,3.9-0.1l60.1,31v-28.2l-66.8-38.6c-1.9-1.1-2.6-3.6-1.5-5.5
					c1.1-1.9,3.5-2.6,5.5-1.5l68.8,39.7c1.2,0.7,2,2,2,3.5V1144.5z"/>
			</g>
		</g>
		
			<text transform="matrix(1 0 0 1 226.7908 1358.486)" class="st7" style="font-family:'BeckmanFree'; font-size:39.6561px; letter-spacing:14;">M</text>
		
			<text transform="matrix(1 0 0 1 271.6408 1358.486)" class="st8" style="font-family:'BeckmanFree'; font-size:39.6561px; letter-spacing:14;">ANG</text>
		
			<text transform="matrix(1 0 0 1 399.4508 1358.486)" class="st7" style="font-family:'BeckmanFree'; font-size:39.6561px; letter-spacing:14;">E</text>
		
			<text transform="matrix(1 0 0 1 436.2508 1358.486)" class="st8" style="font-family:'BeckmanFree'; font-size:39.6561px; letter-spacing:14;">KI</text>
		
			<text transform="matrix(1 0 0 1 296.5043 1386.9143)" class="st7" style="font-family:'KozGoPr6N-Regular-90ms-RKSJ-H'; font-size:20.2097px; letter-spacing:11;">マンゲキ</text>
	</g>
	<g>
		<g>
			<g>
				<path class="st9" d="M820.1,1123c-2,0-3.6,1.6-3.6,3.6s1.6,3.6,3.6,3.6c2,0,3.6-1.6,3.6-3.6S822,1123,820.1,1123z"/>
				<path class="st9" d="M850.4,1196c2,0,3.6-1.6,3.6-3.6s-1.6-3.6-3.6-3.6c-2,0-3.6,1.6-3.6,3.6S848.4,1196,850.4,1196z"/>
				<path class="st9" d="M960.9,1085.7l-124.2-71.7c-0.7-0.4-1.7-0.4-2.4,0L710,1085.7c-0.7,0.4-1.2,1.2-1.2,2.1v143.4
					c0,0.9,0.5,1.7,1.2,2.1l124.2,71.7c0.7,0.4,1.7,0.4,2.4,0l124.2-71.7c0.7-0.4,1.2-1.2,1.2-2.1v-143.4
					C962.1,1086.9,961.6,1086.1,960.9,1085.7z M809.1,1145.4l-23.2,59.6c-0.6,1.6-2.1,2.6-3.8,2.6c-1.7,0-3.2-1.1-3.7-2.7
					l-10.9-30.4v64c0,1.4-0.8,2.8-2,3.5c-0.6,0.4-1.3,0.5-2,0.5s-1.4-0.2-2-0.5l-32.4-18.7c-1.2-0.7-2-2-2-3.5v-120.5
					c0-1.4,0.8-2.8,2-3.5l32.4-18.7c1-0.6,2.3-0.7,3.4-0.3s2,1.3,2.4,2.4l14,39.1l11.9-57.9c0.2-1.1,0.9-2.1,1.9-2.7l38.4-22.2
					c1.2-0.7,2.8-0.7,4,0l15,8.6c1.2,0.7,2,2,2,3.5v135.1c3.9,1.6,6.6,5.4,6.6,9.8c0,5.8-4.8,10.6-10.6,10.6s-10.6-4.8-10.6-10.6
					c0-4.4,2.7-8.2,6.6-9.8v-132.7l-11-6.3l-34.9,20.1l-14.4,70.1c-0.4,1.8-1.8,3.1-3.6,3.2c-1.8,0.1-3.4-1-4-2.6l-17.1-48
					l-26.3,15.2v115.9l24.4,14.1v-80.2c0-1.9,1.4-3.6,3.3-3.9s3.8,0.8,4.5,2.6l15,42.1l19.3-49.6c0.8-2.1,3.1-3.1,5.2-2.3
					C808.9,1141,809.9,1143.3,809.1,1145.4z M943.8,1136.2c0,1.4-0.7,2.7-1.9,3.4c-1.2,0.7-2.7,0.8-3.9,0.1l-60.1-31v28l50.6,17.2
					c1.6,0.6,2.7,2.1,2.7,3.8v1.2c0,1.7-1.1,3.2-2.7,3.8l-50.6,17.2v28l60.1-31c1.2-0.6,2.7-0.6,3.9,0.1c1.2,0.7,1.9,2,1.9,3.4v39.2
					c0,1.4-0.8,2.8-2,3.5l-104.4,60.3c-0.6,0.4-1.3,0.5-2,0.5s-1.4-0.2-2-0.5l-15.5-8.9c-1.2-0.7-2-2-2-3.5v-134.7
					c-3.8-1.6-6.5-5.4-6.5-9.8c0-5.8,4.8-10.6,10.6-10.6s10.6,4.8,10.6,10.6c0,4.5-2.8,8.3-6.7,9.8v132.3l11.5,6.6l100.4-57.9v-30.3
					l-60.1,31c-1.2,0.6-2.7,0.6-3.9-0.1s-1.9-2-1.9-3.4v-37.4c0-1.7,1.1-3.2,2.7-3.8l43.9-14.9l-43.9-14.9c-1.6-0.6-2.7-2.1-2.7-3.8
					v-37.4c0-1.4,0.7-2.7,1.9-3.4c1.2-0.7,2.7-0.8,3.9-0.1l60.1,31v-28.2L869,1063c-1.9-1.1-2.6-3.6-1.5-5.5
					c1.1-1.9,3.5-2.6,5.5-1.5l68.8,39.7c1.2,0.7,2,2,2,3.5L943.8,1136.2L943.8,1136.2z"/>
			</g>
		</g>
		
			<text transform="matrix(1 0 0 1 711.986 1352.7853)" class="st7" style="font-family:'BeckmanFree'; font-size:39.6561px; letter-spacing:14;">M</text>
		
			<text transform="matrix(1 0 0 1 756.836 1352.7853)" class="st9" style="font-family:'BeckmanFree'; font-size:39.6561px; letter-spacing:14;">ANG</text>
		
			<text transform="matrix(1 0 0 1 884.646 1352.7853)" class="st7" style="font-family:'BeckmanFree'; font-size:39.6561px; letter-spacing:14;">E</text>
		
			<text transform="matrix(1 0 0 1 921.446 1352.7853)" class="st9" style="font-family:'BeckmanFree'; font-size:39.6561px; letter-spacing:14;">KI</text>
		
			<text transform="matrix(1 0 0 1 781.6995 1381.2134)" class="st7" style="font-family:'KozGoPr6N-Regular-90ms-RKSJ-H'; font-size:20.2097px; letter-spacing:11;">マンゲキ</text>
	</g>
	<path class="st10" d="M894.4-1448.6c5.3,4.3-16.8,7.1-24,13.4c-2.1,1.8-3,4-3.5,5.9c-0.5,2,1.2,3.9,3.3,3.6
		c4.5-0.7,12.6-0.8,20.3,5.4c3.8,3.1,6.9,5.9,8.7,7.7c1.2,1.2,2.9,1.7,4.5,1.3c7.6-1.4,30-6.4,52.2-20.1
		c27.2-16.7-14.6-38.2-26.1-43.7c-34.5-16.3-104-48.2-139.8-61.5c-6.2-2.3-21.3-3.4-22.7,13.6c-1.7,20.4,24.4,31.2,36.3,36
		C826.5-1477.7,887.8-1453.9,894.4-1448.6z"/>
	<path class="st10" d="M900.9-1406.2c-7.1-6.4-24.1-24.4-37.1-11.3c-12.8,12.8,10.2,31.8,17.9,38.6c8.7,7.7,30.8,29.3,36.4,34.7
		c0.4,0.4,0.1,1.1-0.5,1.1c-5.7-0.5-23.1-4.7-25.4,0.3c-2,4.3-2.6,19.3-2.8,25.9c-0.1,2.4,1.8,4.3,4.2,4.3h1.8c1.6,0,3,0.9,3.7,2.4
		c7,15.6,46.5,103.7,48.7,108.2c3.7,7.7,13.6,24.9,28.9,18.1s10.8-23.6,7.7-30.9c-10.3-23.8-47.3-80.5-41.1-95.2
		c6.1-14.4,27.5-4.8,29.8-22.4C975-1349.1,920-1389,900.9-1406.2z"/>
	<path class="st10" d="M877.2-1366.8c-5.7,0.3-8.2,7.1-9.3,14.2c-2.3,14.6-14.5,107.4-14.5,107.4s-1.1,15.9,11.9,16.7
		s13.9-16.7,13.9-16.7l6.8-108C886-1353.2,887.2-1367.3,877.2-1366.8z"/>
	<path class="st10" d="M846.7-1440.5c-1.6-1-3.6,0.4-5.2,2.2c-3.3,3.6-23.9,27.1-23.9,27.1s-3.2,4.2,0.2,6.8c3.5,2.7,7-2.1,7-2.1
		l21.9-28.7C846.6-1435.1,849.5-1438.8,846.7-1440.5z"/>
	<path class="st10" d="M834.3-1452.8c-1.6-1-3.6,0.4-5.2,2.2c-3.3,3.6-23.9,27.1-23.9,27.1s-3.2,4.2,0.2,6.8s7-2.1,7-2.1l21.9-28.7
		C834.2-1447.4,837.2-1451.1,834.3-1452.8z"/>
	<path class="st10" d="M859.4-1350.6c2.2,2.9-1.4,24.7-1.4,24.7s-0.6,5.7-5.4,5.4s-8.8-0.6-8.8-0.6s-31.1,66.8-45.9,87.9
		c-3.4,4.8-10.8,13-25.2,6.8c-14.5-6.2-0.3-30.1-0.3-30.1l37.1-67.5c0,0-20,0-28.1-0.8c-4.2-0.4-14.7-2-14.2-13.9
		s8.2-18.4,26.4-17.9C811.7-1356,856.5-1354.3,859.4-1350.6z"/>
	<text transform="matrix(1 0 0 1 730.1938 -1135.3657)" style="font-family:'ArialMT'; font-size:40.8533px; letter-spacing:15;">MANGEKI</text>
	
		<text transform="matrix(1 0 0 1 813.1854 -1101.5378)" style="font-family:'KozGoPr6N-Regular-90ms-RKSJ-H'; font-size:20.2097px; letter-spacing:11;">マンゲキ</text>
	<path class="st3" d="M1438.6-1448.6c5.3,4.3-16.8,7.1-24,13.4c-2.1,1.8-3.1,4-3.5,5.9c-0.5,2,1.2,3.9,3.3,3.6
		c4.5-0.7,12.6-0.8,20.3,5.4c3.8,3.1,6.9,5.9,8.7,7.7c1.2,1.2,2.9,1.7,4.5,1.3c7.6-1.4,30.1-6.4,52.2-20.1
		c27.2-16.7-14.6-38.2-26.1-43.7c-34.5-16.3-104-48.2-139.8-61.5c-6.2-2.3-21.3-3.4-22.7,13.6c-1.7,20.4,24.4,31.2,36.3,36
		C1370.8-1477.7,1432.1-1453.9,1438.6-1448.6z"/>
	<path class="st3" d="M1445.1-1406.2c-7.1-6.4-24.1-24.4-37.1-11.3c-12.8,12.8,10.2,31.8,17.9,38.6c8.7,7.7,30.8,29.3,36.4,34.7
		c0.4,0.4,0.1,1.1-0.5,1.1c-5.7-0.5-23.1-4.7-25.4,0.3c-2,4.3-2.6,19.3-2.8,25.9c-0.1,2.4,1.8,4.3,4.2,4.3h1.8c1.6,0,3,0.9,3.7,2.4
		c7,15.6,46.5,103.7,48.7,108.2c3.7,7.7,13.6,24.9,28.9,18.1c15.3-6.8,10.8-23.6,7.7-30.9c-10.3-23.8-47.3-80.5-41.1-95.2
		c6.1-14.4,27.5-4.8,29.8-22.4C1519.3-1349.1,1464.2-1389,1445.1-1406.2z"/>
	<path class="st3" d="M1421.4-1366.8c-5.7,0.3-8.2,7.1-9.3,14.2c-2.3,14.6-14.5,107.4-14.5,107.4s-1.1,15.9,11.9,16.7
		s13.9-16.7,13.9-16.7l6.8-108C1430.2-1353.2,1431.5-1367.3,1421.4-1366.8z"/>
	<path class="st3" d="M1390.9-1440.5c-1.6-1-3.6,0.4-5.2,2.2c-3.3,3.6-23.9,27.1-23.9,27.1s-3.2,4.2,0.2,6.8s6.9-2.1,6.9-2.1
		l21.9-28.7C1390.8-1435.1,1393.8-1438.8,1390.9-1440.5z"/>
	<path class="st3" d="M1378.6-1452.8c-1.6-1-3.6,0.4-5.2,2.2c-3.3,3.6-23.9,27.1-23.9,27.1s-3.2,4.2,0.2,6.8s6.9-2.1,6.9-2.1
		l21.9-28.7C1378.5-1447.4,1381.4-1451.1,1378.6-1452.8z"/>
	<path class="st3" d="M1403.6-1350.6c2.2,2.9-1.4,24.7-1.4,24.7s-0.6,5.7-5.4,5.4c-4.8-0.3-8.8-0.6-8.8-0.6s-31.1,66.8-45.9,87.9
		c-3.4,4.8-10.8,13-25.2,6.8s-0.3-30.1-0.3-30.1l37.1-67.5c0,0-20,0-28.1-0.8c-4.2-0.4-14.7-2-14.2-13.9s8.2-18.4,26.4-17.9
		C1356-1356,1400.8-1354.3,1403.6-1350.6z"/>
	<text transform="matrix(1 0 0 1 1274.4458 -1135.3657)" style="font-family:'ArialMT'; font-size:40.8533px; letter-spacing:15;">MANGEKI</text>
	
		<text transform="matrix(1 0 0 1 1357.4374 -1101.5378)" style="font-family:'KozGoPr6N-Regular-90ms-RKSJ-H'; font-size:20.2097px; letter-spacing:11;">マンゲキ</text>
	<g>
		<path class="st7" d="M273.5-735.3c4.4-5.3,7.1,16.8,13.4,24c1.8,2.1,4,3,6,3.5c2,0.5,3.9-1.2,3.6-3.3c-0.7-4.5-0.8-12.6,5.4-20.3
			c3.1-3.8,5.9-6.9,7.6-8.7c1.1-1.2,1.6-2.9,1.4-4.5c-1.4-7.6-6.4-30-20.1-52.2c-16.7-27.2-38.2,14.6-43.6,26.1
			c-16.3,34.5-48.1,104-61.5,139.8c-2.3,6.2-3.4,21.3,13.6,22.7c20.4,1.7,31.2-24.4,36-36.3C244.4-667.4,268.1-728.7,273.5-735.3z"
			/>
		<path class="st7" d="M315.9-741.8c-6.4,7.1-24.4,24.1-11.3,37.1c12.8,12.8,31.8-10.2,38.5-17.9c7.7-8.7,29.3-30.8,34.7-36.4
			c0.4-0.4,1.1-0.1,1.1,0.5c-0.5,5.7-4.7,23.1,0.3,25.4c4.3,2,19.4,2.6,25.9,2.8c2.4,0.1,4.3-1.8,4.3-4.2v-1.8c0-1.6,0.9-3,2.4-3.7
			c15.6-7,103.7-46.5,108.2-48.7c7.7-3.7,24.9-13.6,18.1-28.9c-6.8-15.3-23.6-10.8-30.9-7.7c-23.8,10.3-80.5,47.3-95.2,41.1
			c-14.4-6.1-4.8-27.5-22.4-29.8C372.9-815.9,333.1-760.9,315.9-741.8z"/>
		<path class="st7" d="M355.3-718.1c0.3,5.7,7.1,8.2,14.2,9.3c14.5,2.3,107.4,14.5,107.4,14.5s15.9,1.1,16.7-11.9
			s-16.7-13.9-16.7-13.9l-108-6.8C368.9-726.9,354.8-728.1,355.3-718.1z"/>
		<path class="st3" d="M281.6-687.6c-1,1.6,0.5,3.6,2.2,5.2c3.6,3.3,27.1,23.9,27.1,23.9s4.2,3.2,6.8-0.2c2.6-3.5-2.1-7-2.1-7
			L287-687.5C287-687.5,283.3-690.4,281.6-687.6z"/>
		<path class="st3" d="M269.3-675.2c-1,1.6,0.5,3.6,2.2,5.2c3.6,3.3,27.1,23.9,27.1,23.9s4.2,3.2,6.8-0.2c2.6-3.5-2.1-7-2.1-7
			l-28.7-21.9C274.7-675.2,271-678.1,269.3-675.2z"/>
		<path class="st7" d="M371.4-700.3c2.9-2.2,24.7,1.4,24.7,1.4s5.7,0.6,5.4,5.4s-0.6,8.8-0.6,8.8s66.8,31.1,87.9,45.9
			c4.8,3.4,13,10.8,6.8,25.2c-6.2,14.5-30,0.3-30,0.3l-67.5-37.1c0,0,0,20-0.9,28.1c-0.5,4.2-2,14.7-13.9,14.2s-18.4-8.2-17.9-26.4
			C366.1-652.6,367.8-697.4,371.4-700.3z"/>
		<text transform="matrix(1 0 0 1 215.4499 -549.7046)" style="font-family:'ArialMT'; font-size:40.8533px; letter-spacing:15;">MANGEKI</text>
		
			<text transform="matrix(1 0 0 1 298.4413 -515.8762)" class="st3" style="font-family:'KozGoPr6N-Regular-90ms-RKSJ-H'; font-size:20.2097px; letter-spacing:11;">マンゲキ</text>
		<g>
			<g>
				<path class="st5" d="M311.4-709.9c3.2,0,3.2-5,0-5S308.2-709.9,311.4-709.9L311.4-709.9z"/>
			</g>
		</g>
		<g>
			<g>
				<path class="st5" d="M487.2-617c3.2,0,3.2-5,0-5S483.9-617,487.2-617L487.2-617z"/>
			</g>
		</g>
		<g>
			<g>
				<path class="st5" d="M383.3-615.3c3.2,0,3.2-5,0-5S380-615.3,383.3-615.3L383.3-615.3z"/>
			</g>
		</g>
		<g>
			<g>
				<path class="st5" d="M277.3-790.9c3.2,0,3.2-5,0-5S274-790.9,277.3-790.9L277.3-790.9z"/>
			</g>
		</g>
		<g>
			<g>
				<path class="st5" d="M390.5-799.9c3.2,0,3.2-5,0-5S387.3-799.9,390.5-799.9L390.5-799.9z"/>
			</g>
		</g>
		<path class="st5" d="M301.8-744.5c-1,0-1.8-0.7-2-1.7c-4.9-27.8-15.8-39.7-15.9-39.8c-0.8-0.8-0.7-2.1,0.1-2.8s2.1-0.7,2.8,0.1
			c0.5,0.5,11.8,12.7,17,41.8c0.2,1.1-0.5,2.1-1.6,2.3C302-744.5,301.9-744.5,301.8-744.5z"/>
		<path class="st5" d="M374.6-619.7c-0.7,0-1.4-0.4-1.8-1.1c-0.4-0.9-4.1-9.8,0.4-57.2c0.1-1.1,1.1-1.9,2.2-1.8
			c1.1,0.1,1.9,1.1,1.8,2.2c-4.4,46.3-0.8,55-0.8,55c0.5,1,0.1,2.2-0.9,2.7C375.2-619.8,374.9-619.7,374.6-619.7z"/>
		<path class="st5" d="M410.4-775.2c-0.1,0-0.2,0-0.2,0c-12.1-1.4-15.4-11.6-15.4-16.8c0-1.1,0.9-2,2-2h0c1.1,0,2,0.9,2,2
			c0,0.5,0.3,11.5,11.9,12.8c1.1,0.1,1.9,1.1,1.8,2.2C412.2-775.9,411.4-775.2,410.4-775.2z"/>
		<path class="st5" d="M488.4-627.9c-0.4,0-0.8-0.1-1.1-0.3c-0.4-0.2-36.6-24.5-76.8-41.2c-1-0.4-1.5-1.6-1.1-2.6
			c0.4-1,1.6-1.5,2.6-1.1c40.5,16.9,77.1,41.3,77.5,41.6c0.9,0.6,1.2,1.9,0.5,2.8C489.7-628.2,489.1-627.9,488.4-627.9z"/>
		<path class="st5" d="M478.6-793.2c-1.1,0-2-0.9-2-2v-31.2c0-1.1,0.9-2,2-2s2,0.9,2,2v31.2C480.6-794.1,479.8-793.2,478.6-793.2z"
			/>
		<path class="st5" d="M491.4-802.7c-1.1,0-2-0.9-2-2v-31.2c0-1.1,0.9-2,2-2s2,0.9,2,2v31.2C493.4-803.6,492.5-802.7,491.4-802.7z"
			/>
		<path class="st5" d="M504.2-810.7c-1.1,0-2-0.9-2-2v-31.2c0-1.1,0.9-2,2-2s2,0.9,2,2v31.2C506.2-811.6,505.3-810.7,504.2-810.7z"
			/>
		<g>
			<path class="st5" d="M207.8-626.1c-0.4,0-0.7-0.1-1.1-0.3l-26.5-16.4c-0.9-0.6-1.2-1.8-0.6-2.8s1.8-1.2,2.8-0.7l26.5,16.4
				c0.9,0.6,1.2,1.8,0.6,2.8C209.1-626.4,208.4-626.1,207.8-626.1z"/>
			<path class="st5" d="M206.4-641.9c-0.4,0-0.7-0.1-1.1-0.3l-26.5-16.4c-0.9-0.6-1.2-1.8-0.6-2.8s1.8-1.2,2.8-0.7l26.5,16.4
				c0.9,0.6,1.2,1.8,0.6,2.8C207.7-642.2,207.1-641.9,206.4-641.9z"/>
			<path class="st5" d="M206.3-657c-0.4,0-0.7-0.1-1.1-0.3l-26.5-16.4c-0.9-0.6-1.2-1.8-0.6-2.8s1.8-1.2,2.8-0.7l26.5,16.4
				c0.9,0.6,1.2,1.8,0.6,2.8C207.6-657.3,207-657,206.3-657z"/>
		</g>
	</g>
	<g>
		<path class="st3" d="M1703.9-735.3c4.3-5.3,7.1,16.8,13.4,24c1.8,2.1,4,3,5.9,3.5c2,0.5,3.9-1.2,3.6-3.3
			c-0.7-4.5-0.8-12.6,5.4-20.3c3.1-3.8,5.9-6.9,7.7-8.7c1.2-1.2,1.7-2.9,1.3-4.5c-1.4-7.6-6.4-30-20.1-52.2
			c-16.7-27.2-38.2,14.6-43.7,26.1c-16.3,34.5-48.2,104-61.5,139.8c-2.3,6.2-3.4,21.3,13.6,22.7c20.4,1.7,31.2-24.4,36-36.3
			C1674.8-667.4,1698.5-728.7,1703.9-735.3z"/>
		<path class="st3" d="M1746.2-741.8c-6.4,7.1-24.4,24.1-11.3,37.1c12.8,12.8,31.8-10.2,38.6-17.9c7.7-8.7,29.3-30.8,34.7-36.4
			c0.4-0.4,1.1-0.1,1.1,0.5c-0.5,5.7-4.7,23.1,0.3,25.4c4.3,2,19.3,2.6,25.9,2.8c2.4,0.1,4.3-1.8,4.3-4.2v-1.8c0-1.6,0.9-3,2.4-3.7
			c15.6-7,103.7-46.5,108.2-48.7c7.7-3.7,24.9-13.6,18.1-28.9c-6.8-15.3-23.6-10.8-30.9-7.7c-23.8,10.3-80.5,47.3-95.2,41.1
			c-14.4-6.1-4.8-27.5-22.4-29.8C1803.3-815.9,1763.4-760.9,1746.2-741.8z"/>
		<path class="st3" d="M1785.7-718.1c0.3,5.7,7.1,8.2,14.2,9.3c14.6,2.3,107.4,14.5,107.4,14.5s15.9,1.1,16.7-11.9
			s-16.7-13.9-16.7-13.9l-108-6.8C1799.2-726.9,1785.2-728.1,1785.7-718.1z"/>
		<path class="st3" d="M1712-687.6c-1,1.6,0.4,3.6,2.2,5.2c3.6,3.3,27.1,23.9,27.1,23.9s4.2,3.2,6.8-0.2c2.7-3.5-2.1-7-2.1-7
			l-28.7-21.9C1717.4-687.5,1713.7-690.4,1712-687.6z"/>
		<path class="st3" d="M1699.6-675.2c-1,1.6,0.4,3.6,2.2,5.2c3.6,3.3,27.1,23.9,27.1,23.9s4.2,3.2,6.8-0.2c2.7-3.5-2.1-7-2.1-7
			l-28.7-21.9C1705-675.2,1701.3-678.1,1699.6-675.2z"/>
		<path class="st3" d="M1801.8-700.3c2.9-2.2,24.7,1.4,24.7,1.4s5.7,0.6,5.4,5.4s-0.6,8.8-0.6,8.8s66.8,31.1,87.9,45.9
			c4.8,3.4,13,10.8,6.8,25.2c-6.2,14.5-30.1,0.3-30.1,0.3l-67.5-37.1c0,0,0,20-0.8,28.1c-0.4,4.2-2,14.7-13.9,14.2
			s-18.4-8.2-17.9-26.4C1796.4-652.6,1798.1-697.4,1801.8-700.3z"/>
		<text transform="matrix(1 0 0 1 1645.8121 -549.7046)" style="font-family:'ArialMT'; font-size:40.8533px; letter-spacing:15;">MANGEKI</text>
		
			<text transform="matrix(1 0 0 1 1728.8035 -515.8762)" class="st3" style="font-family:'KozGoPr6N-Regular-90ms-RKSJ-H'; font-size:20.2097px; letter-spacing:11;">マンゲキ</text>
		<g>
			<g>
				<path class="st5" d="M1741.8-709.9c3.2,0,3.2-5,0-5S1738.6-709.9,1741.8-709.9L1741.8-709.9z"/>
			</g>
		</g>
		<g>
			<g>
				<path class="st5" d="M1917.5-617c3.2,0,3.2-5,0-5S1914.3-617,1917.5-617L1917.5-617z"/>
			</g>
		</g>
		<g>
			<g>
				<path class="st5" d="M1813.6-615.3c3.2,0,3.2-5,0-5S1810.4-615.3,1813.6-615.3L1813.6-615.3z"/>
			</g>
		</g>
		<g>
			<g>
				<path class="st5" d="M1707.6-790.9c3.2,0,3.2-5,0-5S1704.4-790.9,1707.6-790.9L1707.6-790.9z"/>
			</g>
		</g>
		<g>
			<g>
				<path class="st5" d="M1820.9-799.9c3.2,0,3.2-5,0-5C1817.7-804.9,1817.7-799.9,1820.9-799.9L1820.9-799.9z"/>
			</g>
		</g>
		<path class="st5" d="M1732.1-744.5c-0.9,0-1.8-0.7-2-1.7c-4.9-27.8-15.8-39.7-15.9-39.8c-0.8-0.8-0.7-2.1,0.1-2.8
			c0.8-0.8,2.1-0.7,2.8,0.1c0.5,0.5,11.8,12.7,17,41.8c0.2,1.1-0.5,2.1-1.6,2.3C1732.4-744.5,1732.2-744.5,1732.1-744.5z"/>
		<path class="st5" d="M1805-619.7c-0.7,0-1.4-0.4-1.8-1.1c-0.4-0.9-4.1-9.8,0.4-57.2c0.1-1.1,1.1-1.9,2.2-1.8
			c1.1,0.1,1.9,1.1,1.8,2.2c-4.4,46.3-0.8,55-0.8,55c0.5,1,0.1,2.2-0.9,2.7C1805.6-619.8,1805.3-619.7,1805-619.7z"/>
		<path class="st5" d="M1840.7-775.2c-0.1,0-0.2,0-0.2,0c-12.1-1.4-15.4-11.6-15.4-16.8c0-1.1,0.9-2,2-2h0c1.1,0,2,0.9,2,2
			c0,0.5,0.3,11.5,11.9,12.8c1.1,0.1,1.9,1.1,1.8,2.2C1842.6-775.9,1841.7-775.2,1840.7-775.2z"/>
		<path class="st5" d="M1918.8-627.9c-0.4,0-0.8-0.1-1.1-0.3c-0.4-0.2-36.6-24.5-76.8-41.2c-1-0.4-1.5-1.6-1.1-2.6
			c0.4-1,1.6-1.5,2.6-1.1c40.5,16.9,77.1,41.3,77.4,41.6c0.9,0.6,1.2,1.9,0.5,2.8C1920.1-628.2,1919.4-627.9,1918.8-627.9z"/>
		<path class="st5" d="M1909-793.2c-1.1,0-2-0.9-2-2v-31.2c0-1.1,0.9-2,2-2s2,0.9,2,2v31.2C1911-794.1,1910.1-793.2,1909-793.2z"/>
		<path class="st5" d="M1921.8-802.7c-1.1,0-2-0.9-2-2v-31.2c0-1.1,0.9-2,2-2s2,0.9,2,2v31.2
			C1923.8-803.6,1922.9-802.7,1921.8-802.7z"/>
		<path class="st5" d="M1934.5-810.7c-1.1,0-2-0.9-2-2v-31.2c0-1.1,0.9-2,2-2s2,0.9,2,2v31.2
			C1936.5-811.6,1935.6-810.7,1934.5-810.7z"/>
		<g>
			<path class="st5" d="M1638.1-626.1c-0.4,0-0.7-0.1-1.1-0.3l-26.5-16.4c-0.9-0.6-1.2-1.8-0.7-2.8s1.8-1.2,2.8-0.7l26.5,16.4
				c0.9,0.6,1.2,1.8,0.7,2.8C1639.4-626.4,1638.8-626.1,1638.1-626.1z"/>
			<path class="st5" d="M1636.8-641.9c-0.4,0-0.7-0.1-1.1-0.3l-26.5-16.4c-0.9-0.6-1.2-1.8-0.7-2.8s1.8-1.2,2.8-0.7l26.5,16.4
				c0.9,0.6,1.2,1.8,0.7,2.8C1638.1-642.2,1637.4-641.9,1636.8-641.9z"/>
			<path class="st5" d="M1636.7-657c-0.4,0-0.7-0.1-1.1-0.3l-26.5-16.4c-0.9-0.6-1.2-1.8-0.7-2.8s1.8-1.2,2.8-0.7l26.5,16.4
				c0.9,0.6,1.2,1.8,0.7,2.8C1638-657.3,1637.3-657,1636.7-657z"/>
		</g>
	</g>
	<g>
		<text transform="matrix(1 0 0 1 727.1506 -544.5942)" style="font-family:'ArialMT'; font-size:40.8533px; letter-spacing:15;">MANGEKI</text>
		
			<text transform="matrix(1 0 0 1 810.1421 -510.7661)" class="st3" style="font-family:'KozGoPr6N-Regular-90ms-RKSJ-H'; font-size:20.2097px; letter-spacing:11;">マンゲキ</text>
		<path class="st7" d="M882.5-852.5c5.3,4.3-16.8,7.1-24,13.4c-2.1,1.8-3,4-3.5,6c-0.5,2,1.2,3.9,3.3,3.6c4.5-0.7,12.6-0.8,20.3,5.4
			c3.8,3.1,6.9,5.9,8.7,7.7c1.2,1.2,2.9,1.7,4.5,1.3c7.6-1.4,30-6.4,52.2-20.1c27.2-16.7-14.6-38.2-26.1-43.7
			c-34.5-16.3-104-48.2-139.8-61.5c-6.2-2.3-21.3-3.4-22.7,13.6c-1.7,20.4,24.4,31.2,36.3,36C814.7-881.6,876-857.9,882.5-852.5z"/>
		<path class="st7" d="M889-810.1c-7.1-6.4-24.1-24.4-37.1-11.3c-12.8,12.8,10.2,31.8,17.9,38.5c8.7,7.7,30.8,29.3,36.4,34.7
			c0.4,0.4,0.1,1.1-0.5,1.1c-5.7-0.5-23.1-4.7-25.4,0.3c-2,4.3-2.6,19.3-2.8,25.9c-0.1,2.4,1.8,4.3,4.2,4.3h1.8c1.6,0,3,0.9,3.7,2.4
			c7,15.6,46.5,103.7,48.7,108.2c3.7,7.7,13.6,24.9,28.9,18.1c15.3-6.8,10.8-23.6,7.7-30.9C962-642.6,925-699.3,931.3-714
			c6.1-14.4,27.5-4.8,29.8-22.4C963.2-753,908.2-792.9,889-810.1z"/>
		<path class="st7" d="M865.4-770.7c-5.7,0.3-8.2,7.1-9.3,14.2c-2.3,14.5-14.5,107.4-14.5,107.4s-1.1,15.9,11.9,16.7
			s13.9-16.7,13.9-16.7l6.8-108C874.2-757.1,875.4-771.2,865.4-770.7z"/>
		<path class="st3" d="M834.8-844.4c-1.6-1-3.6,0.5-5.2,2.2c-3.3,3.6-23.9,27.1-23.9,27.1s-3.2,4.2,0.2,6.8s7-2.1,7-2.1l21.9-28.7
			C834.7-839,837.7-842.7,834.8-844.4z"/>
		<path class="st3" d="M822.5-856.7c-1.6-1-3.6,0.5-5.2,2.2c-3.3,3.6-23.9,27.1-23.9,27.1s-3.2,4.2,0.2,6.8s7-2.1,7-2.1l21.9-28.7
			C822.4-851.3,825.4-855,822.5-856.7z"/>
		<path class="st7" d="M847.5-754.5c2.2,2.9-1.4,24.7-1.4,24.7s-0.6,5.7-5.4,5.4s-8.8-0.6-8.8-0.6s-31.1,66.8-45.9,87.9
			c-3.4,4.8-10.8,13-25.2,6.8c-14.5-6.2-0.3-30-0.3-30l37.1-67.5c0,0-20,0-28.1-0.8c-4.2-0.5-14.7-2-14.2-13.9
			c0.6-11.9,8.2-18.4,26.4-17.9S844.7-758.2,847.5-754.5z"/>
		<g>
			<g>
				<path class="st5" d="M859.7-812.1c3.2,0,3.2-5,0-5C856.5-817.1,856.5-812.1,859.7-812.1L859.7-812.1z"/>
			</g>
		</g>
		<g>
			<g>
				<path class="st5" d="M766.7-636.3c3.2,0,3.2-5,0-5S763.5-636.3,766.7-636.3L766.7-636.3z"/>
			</g>
		</g>
		<g>
			<g>
				<path class="st5" d="M765-740.2c3.2,0,3.2-5,0-5C761.8-745.2,761.8-740.2,765-740.2L765-740.2z"/>
			</g>
		</g>
		<g>
			<g>
				<path class="st5" d="M940.6-846.2c3.2,0,3.2-5,0-5C937.4-851.2,937.4-846.2,940.6-846.2L940.6-846.2z"/>
			</g>
		</g>
		<g>
			<g>
				<path class="st5" d="M949.7-733c3.2,0,3.2-5,0-5C946.5-738,946.5-733,949.7-733L949.7-733z"/>
			</g>
		</g>
		<path class="st5" d="M891.7-824.2c0-1,0.7-1.8,1.7-2c27.8-4.9,39.7-15.8,39.8-15.9c0.8-0.8,2.1-0.7,2.8,0.1s0.7,2.1-0.1,2.8
			c-0.5,0.5-12.7,11.8-41.8,17c-1.1,0.2-2.1-0.5-2.3-1.6C891.7-824,891.7-824.1,891.7-824.2z"/>
		<path class="st5" d="M767-751.3c0-0.7,0.4-1.4,1.1-1.8c0.9-0.4,9.8-4.1,57.2,0.4c1.1,0.1,1.9,1.1,1.8,2.2
			c-0.1,1.1-1.1,1.9-2.2,1.8c-46.3-4.4-55-0.8-55-0.8c-1,0.5-2.2,0.1-2.7-0.9C767-750.7,767-751,767-751.3z"/>
		<path class="st5" d="M922.4-715.6c0-0.1,0-0.2,0-0.2c1.4-12.1,11.6-15.4,16.8-15.4c1.1,0,2,0.9,2,2v0c0,1.1-0.9,2-2,2
			c-0.5,0-11.5,0.3-12.8,11.9c-0.1,1.1-1.1,1.9-2.2,1.8C923.2-713.7,922.4-714.6,922.4-715.6z"/>
		<path class="st5" d="M775.2-637.6c0-0.4,0.1-0.8,0.3-1.1c0.2-0.4,24.5-36.6,41.2-76.8c0.4-1,1.6-1.5,2.6-1.1
			c1,0.4,1.5,1.6,1.1,2.6c-16.9,40.5-41.3,77.1-41.6,77.5c-0.6,0.9-1.9,1.2-2.8,0.5C775.5-636.3,775.2-636.9,775.2-637.6z"/>
		<path class="st5" d="M940.5-647.3c0-1.1,0.9-2,2-2h31.2c1.1,0,2,0.9,2,2s-0.9,2-2,2h-31.2C941.4-645.3,940.5-646.2,940.5-647.3z"
			/>
		<path class="st5" d="M949.9-634.6c0-1.1,0.9-2,2-2h31.2c1.1,0,2,0.9,2,2s-0.9,2-2,2h-31.2C950.8-632.6,949.9-633.5,949.9-634.6z"
			/>
		<path class="st5" d="M957.9-621.8c0-1.1,0.9-2,2-2h31.2c1.1,0,2,0.9,2,2s-0.9,2-2,2h-31.2C958.8-619.8,957.9-620.7,957.9-621.8z"
			/>
		<g>
			<path class="st5" d="M773.3-918.2c0-0.4,0.1-0.7,0.3-1l16.4-26.5c0.6-0.9,1.8-1.2,2.8-0.7s1.2,1.8,0.7,2.8L777-917.2
				c-0.6,0.9-1.8,1.2-2.8,0.7C773.7-916.9,773.3-917.6,773.3-918.2z"/>
			<path class="st5" d="M789.2-919.6c0-0.4,0.1-0.7,0.3-1l16.4-26.5c0.6-0.9,1.8-1.2,2.8-0.7s1.2,1.8,0.7,2.8l-16.4,26.5
				c-0.6,0.9-1.8,1.2-2.8,0.7C789.5-918.3,789.2-918.9,789.2-919.6z"/>
			<path class="st5" d="M804.2-919.7c0-0.4,0.1-0.7,0.3-1l16.4-26.5c0.6-0.9,1.8-1.2,2.8-0.7s1.2,1.8,0.7,2.8l-16.4,26.5
				c-0.6,0.9-1.8,1.2-2.8,0.7C804.6-918.4,804.2-919,804.2-919.7z"/>
		</g>
	</g>
	<text transform="matrix(1 0 0 1 1270.8357 -535.5233)" style="font-family:'ArialMT'; font-size:40.8533px; letter-spacing:15;">MANGEKI</text>
	
		<text transform="matrix(1 0 0 1 1353.827 -501.6953)" class="st3" style="font-family:'KozGoPr6N-Regular-90ms-RKSJ-H'; font-size:20.2097px; letter-spacing:11;">マンゲキ</text>
	<path class="st3" d="M1426.2-843.4c5.3,4.3-16.8,7.1-24,13.4c-2.1,1.8-3.1,4-3.5,6c-0.5,2,1.2,3.9,3.3,3.6
		c4.5-0.7,12.7-0.8,20.3,5.4c3.8,3.1,6.9,5.9,8.7,7.7c1.2,1.2,2.9,1.7,4.5,1.3c7.6-1.4,30.1-6.4,52.2-20.1
		c27.2-16.7-14.6-38.2-26.1-43.7c-34.5-16.3-104-48.2-139.8-61.5c-6.2-2.3-21.3-3.4-22.7,13.6c-1.7,20.4,24.4,31.2,36.3,36
		C1358.3-872.5,1419.7-848.8,1426.2-843.4z"/>
	<path class="st3" d="M1432.7-801c-7.1-6.4-24.1-24.4-37.1-11.3c-12.8,12.8,10.2,31.8,17.9,38.5c8.7,7.7,30.8,29.3,36.4,34.7
		c0.4,0.4,0.1,1.1-0.5,1.1c-5.7-0.5-23.1-4.7-25.4,0.3c-2,4.3-2.6,19.3-2.8,25.9c-0.1,2.4,1.8,4.3,4.2,4.3h1.8c1.6,0,3,0.9,3.7,2.4
		c7,15.6,46.5,103.7,48.7,108.2c3.7,7.7,13.6,24.9,28.9,18.1c15.3-6.8,10.8-23.6,7.7-30.9c-10.3-23.8-47.3-80.5-41.1-95.2
		c6.1-14.4,27.5-4.8,29.8-22.4C1506.9-744,1451.8-783.8,1432.7-801z"/>
	<path class="st3" d="M1409.1-761.6c-5.7,0.3-8.2,7.1-9.3,14.2c-2.3,14.5-14.5,107.4-14.5,107.4s-1.1,15.9,11.9,16.7
		S1411-640,1411-640l6.8-108C1417.8-748,1419.1-762.1,1409.1-761.6z"/>
	<path class="st3" d="M1378.5-835.3c-1.6-1-3.6,0.5-5.2,2.2c-3.3,3.6-23.9,27.1-23.9,27.1s-3.2,4.2,0.2,6.8s6.9-2.1,6.9-2.1
		l21.9-28.7C1378.4-829.9,1381.4-833.6,1378.5-835.3z"/>
	<path class="st3" d="M1366.2-847.7c-1.6-1-3.6,0.5-5.2,2.2c-3.3,3.6-23.9,27.1-23.9,27.1s-3.2,4.2,0.2,6.8s6.9-2.1,6.9-2.1
		l21.9-28.7C1366.1-842.2,1369.1-845.9,1366.2-847.7z"/>
	<path class="st3" d="M1391.2-745.5c2.2,2.9-1.4,24.7-1.4,24.7s-0.6,5.7-5.4,5.4c-4.8-0.3-8.8-0.6-8.8-0.6s-31.1,66.8-45.9,87.9
		c-3.4,4.8-10.8,13-25.2,6.8s-0.3-30-0.3-30l37.1-67.5c0,0-20,0-28.1-0.8c-4.2-0.5-14.7-2-14.2-13.9c0.6-11.9,8.2-18.4,26.4-17.9
		C1343.6-750.9,1388.4-749.2,1391.2-745.5z"/>
	<g>
		<g>
			<path class="st5" d="M1403.4-803c3.2,0,3.2-5,0-5S1400.2-803,1403.4-803L1403.4-803z"/>
		</g>
	</g>
	<g>
		<g>
			<path class="st5" d="M1310.4-627.3c3.2,0,3.2-5,0-5C1307.2-632.3,1307.2-627.3,1310.4-627.3L1310.4-627.3z"/>
		</g>
	</g>
	<g>
		<g>
			<path class="st5" d="M1308.7-731.1c3.2,0,3.2-5,0-5C1305.5-736.1,1305.5-731.1,1308.7-731.1L1308.7-731.1z"/>
		</g>
	</g>
	<g>
		<g>
			<path class="st5" d="M1484.3-837.2c3.2,0,3.2-5,0-5S1481.1-837.2,1484.3-837.2L1484.3-837.2z"/>
		</g>
	</g>
	<g>
		<g>
			<path class="st5" d="M1493.4-723.9c3.2,0,3.2-5,0-5S1490.2-723.9,1493.4-723.9L1493.4-723.9z"/>
		</g>
	</g>
	<path class="st5" d="M1435.4-815.2c0-1,0.7-1.8,1.7-2c27.8-4.9,39.7-15.8,39.8-15.9c0.8-0.8,2.1-0.7,2.8,0.1s0.7,2.1-0.1,2.8
		c-0.5,0.5-12.7,11.8-41.8,17c-1.1,0.2-2.1-0.5-2.3-1.6C1435.4-814.9,1435.4-815,1435.4-815.2z"/>
	<path class="st5" d="M1310.7-742.3c0-0.7,0.4-1.4,1.1-1.8c0.9-0.4,9.8-4.1,57.2,0.4c1.1,0.1,1.9,1.1,1.8,2.2
		c-0.1,1.1-1.1,1.9-2.2,1.8c-46.3-4.4-55-0.8-55-0.8c-1,0.5-2.2,0.1-2.7-0.9C1310.7-741.7,1310.7-742,1310.7-742.3z"/>
	<path class="st5" d="M1466.1-706.5c0-0.1,0-0.2,0-0.2c1.4-12.1,11.6-15.4,16.8-15.4c1.1,0,2,0.9,2,2v0c0,1.1-0.9,2-2,2
		c-0.5,0-11.5,0.3-12.8,11.9c-0.1,1.1-1.1,1.9-2.2,1.8C1466.9-704.7,1466.1-705.5,1466.1-706.5z"/>
	<path class="st5" d="M1318.9-628.5c0-0.4,0.1-0.8,0.3-1.1c0.2-0.4,24.5-36.6,41.2-76.8c0.4-1,1.6-1.5,2.6-1.1
		c1,0.4,1.5,1.6,1.1,2.6c-16.9,40.5-41.3,77.1-41.6,77.5c-0.6,0.9-1.9,1.2-2.8,0.5C1319.2-627.2,1318.9-627.8,1318.9-628.5z"/>
	<path class="st5" d="M1484.2-638.3c0-1.1,0.9-2,2-2h31.2c1.1,0,2,0.9,2,2s-0.9,2-2,2h-31.2C1485.1-636.3,1484.2-637.2,1484.2-638.3
		z"/>
	<path class="st5" d="M1493.6-625.5c0-1.1,0.9-2,2-2h31.2c1.1,0,2,0.9,2,2s-0.9,2-2,2h-31.2C1494.5-623.5,1493.6-624.4,1493.6-625.5
		z"/>
	<path class="st5" d="M1501.6-612.8c0-1.1,0.9-2,2-2h31.2c1.1,0,2,0.9,2,2s-0.9,2-2,2h-31.2C1502.5-610.8,1501.6-611.7,1501.6-612.8
		z"/>
	<g>
		<path class="st5" d="M1317-909.2c0-0.4,0.1-0.7,0.3-1l16.4-26.5c0.6-0.9,1.8-1.2,2.8-0.7s1.2,1.8,0.7,2.8l-16.4,26.5
			c-0.6,0.9-1.8,1.2-2.8,0.7C1317.4-907.8,1317-908.5,1317-909.2z"/>
		<path class="st5" d="M1332.9-910.5c0-0.4,0.1-0.7,0.3-1l16.4-26.5c0.6-0.9,1.8-1.2,2.8-0.7s1.2,1.8,0.7,2.8l-16.4,26.5
			c-0.6,0.9-1.8,1.2-2.8,0.7C1333.2-909.2,1332.9-909.8,1332.9-910.5z"/>
		<path class="st5" d="M1347.9-910.6c0-0.4,0.1-0.7,0.3-1l16.4-26.5c0.6-0.9,1.8-1.2,2.8-0.7s1.2,1.8,0.7,2.8l-16.4,26.5
			c-0.6,0.9-1.8,1.2-2.8,0.7C1348.2-909.3,1347.9-909.9,1347.9-910.6z"/>
	</g>
	<g>
		<text transform="matrix(1 0 0 1 209.3842 -1135.3657)" style="font-family:'ArialMT'; font-size:40.8533px; letter-spacing:15;">MANGEKI</text>
		
			<text transform="matrix(1 0 0 1 292.3756 -1101.5378)" style="font-family:'KozGoPr6N-Regular-90ms-RKSJ-H'; font-size:20.2097px; letter-spacing:11;">マンゲキ</text>
		<path class="st10" d="M267.4-1318.1c4.4-5.3,7.1,16.8,13.4,24c1.8,2.1,4,3.1,6,3.5c2,0.5,3.9-1.2,3.6-3.3
			c-0.7-4.5-0.8-12.6,5.4-20.3c3.1-3.8,5.9-6.9,7.6-8.7c1.1-1.2,1.6-2.9,1.4-4.5c-1.4-7.6-6.4-30.1-20.1-52.2
			c-16.7-27.2-38.2,14.6-43.6,26.1c-16.3,34.5-48.1,104-61.5,139.8c-2.3,6.2-3.4,21.3,13.6,22.7c20.4,1.7,31.2-24.4,36-36.3
			C238.3-1250.2,262-1311.5,267.4-1318.1z"/>
		<path class="st10" d="M309.8-1324.6c-6.4,7.1-24.4,24.1-11.3,37.1c12.8,12.8,31.8-10.2,38.5-17.9c7.7-8.7,29.3-30.8,34.7-36.4
			c0.4-0.4,1.1-0.1,1.1,0.5c-0.5,5.7-4.7,23.1,0.3,25.4c4.3,2,19.4,2.6,25.9,2.8c2.4,0.1,4.3-1.8,4.3-4.2v-1.8c0-1.6,0.9-3,2.4-3.7
			c15.6-7,103.7-46.5,108.2-48.7c7.7-3.7,24.9-13.6,18.1-28.9s-23.6-10.8-30.9-7.7c-23.8,10.3-80.5,47.3-95.2,41.1
			c-14.4-6.1-4.8-27.5-22.4-29.8C366.9-1398.7,327-1343.7,309.8-1324.6z"/>
		<path class="st10" d="M349.2-1300.9c0.3,5.7,7.1,8.2,14.2,9.3c14.5,2.3,107.4,14.5,107.4,14.5s15.9,1.1,16.7-11.9
			s-16.7-13.9-16.7-13.9l-108-6.8C362.8-1309.7,348.7-1310.9,349.2-1300.9z"/>
		<path d="M275.5-1270.4c-1,1.6,0.5,3.6,2.2,5.2c3.6,3.3,27.1,23.9,27.1,23.9s4.2,3.2,6.8-0.2c2.6-3.5-2.1-6.9-2.1-6.9l-28.7-21.9
			C280.9-1270.3,277.2-1273.2,275.5-1270.4z"/>
		<path d="M263.2-1258c-1,1.6,0.5,3.6,2.2,5.2c3.6,3.3,27.1,23.9,27.1,23.9s4.2,3.2,6.8-0.2s-2.1-6.9-2.1-6.9l-28.7-21.9
			C268.6-1257.9,264.9-1260.9,263.2-1258z"/>
		<path class="st10" d="M365.4-1283.1c2.9-2.2,24.7,1.4,24.7,1.4s5.7,0.6,5.4,5.4c-0.3,4.8-0.6,8.8-0.6,8.8s66.8,31.1,87.9,45.9
			c4.8,3.4,13,10.8,6.8,25.2c-6.2,14.5-30,0.3-30,0.3l-67.5-37.1c0,0,0,20-0.9,28.1c-0.5,4.2-2,14.7-13.9,14.2s-18.4-8.2-17.9-26.4
			S361.7-1280.2,365.4-1283.1z"/>
	</g>
	<g>
		<path d="M2063.9-1138.4c0.1,0,0.2-0.1,0.2-0.2c0-0.1-0.1-0.2-0.2-0.2c-0.1,0-0.2,0.1-0.2,0.2
			C2063.7-1138.5,2063.8-1138.4,2063.9-1138.4z"/>
		<g>
			<g>
				<path class="st3" d="M2140.2-1349.2l-32.2,65.6h61.1c5-12.8,7.8-26.8,7.8-41.4c0-22.8-6.8-44.1-18.4-61.8l-18.4,37.7
					L2140.2-1349.2z"/>
				<path class="st3" d="M2068.4-1212.1c24.6-0.9,47.3-9.8,65.4-24.1h-65.4V-1212.1z"/>
				<path class="st3" d="M2098.5-1283.6L2098.5-1283.6l18.2-37.2h-48.4v76.2h75c8.9-8.8,16.3-19.1,21.9-30.4h-71.2L2098.5-1283.6z"
					/>
				<path class="st3" d="M1980.2-1382.5l8.5,5.3v0l34,21.1l36.5-60.2v-21.5c-36.9,1.5-69.2,20.7-88.7,49.3L1980.2-1382.5
					L1980.2-1382.5z"/>
				<path class="st3" d="M2059.2-1400l-29.3,48.3l0,0l0,0l-4.3,7.2l-0.1,0l-0.1,0.1l-36.5-22.6v126.6c18.9,16.8,43.4,27.3,70.3,28.4
					v-176.2L2059.2-1400L2059.2-1400z"/>
				<path class="st3" d="M1966-1381.3c-9.6,16.6-15,35.8-15,56.3c0,29,10.9,55.5,28.9,75.5v-123.2L1966-1381.3z"/>
				<path class="st3" d="M2068.4-1414h65.1c-18.1-14.2-40.6-22.9-65.1-23.8v22.9V-1414z"/>
				<path class="st3" d="M2068.4-1329.3h52.5l32-65.3c-3-3.8-6.2-7.4-9.7-10.8h-74.8L2068.4-1329.3L2068.4-1329.3z"/>
			</g>
			<path class="st10" d="M2063.9-1456.3c-72.5,0-131.3,58.8-131.3,131.3c0,72.5,58.8,131.3,131.3,131.3
				c72.5,0,131.3-58.8,131.3-131.3C2195.3-1397.5,2136.5-1456.3,2063.9-1456.3z M2063.9-1205.1c-66.2,0-119.8-53.7-119.8-119.8
				s53.7-119.8,119.8-119.8s119.9,53.7,119.9,119.8S2130.1-1205.1,2063.9-1205.1z"/>
		</g>
		
			<text transform="matrix(1 0 0 1 1996.1566 -1101.5298)" style="font-family:'KozGoPr6N-Regular-90ms-RKSJ-H'; font-size:20.2097px; letter-spacing:11;">マンゲキ</text>
		<text transform="matrix(1 0 0 1 1852.535 -1134.2651)" style="font-family:'ArialMT'; font-size:54.4858px; letter-spacing:20;">MANGEKI</text>
		<circle class="st3" cx="1981.9" cy="-1108.4" r="6.8"/>
		<circle class="st3" cx="2127.6" cy="-1108.4" r="6.8"/>
	</g>
</g>
</svg>
